<svg width="122" height="122" viewBox="0 0 122 122" fill="none" xmlns="http://www.w3.org/2000/svg">
<path d="M111.23 18.033C96.6798 16.9933 82.6519 12.1774 70.5312 4.06006V32.4062H73.3906C81.2865 32.4062 87.6875 38.8072 87.6875 46.7031C87.6875 54.599 81.2865 61 73.3906 61C81.2865 61 87.6875 67.401 87.6875 75.2968C87.6875 83.1927 81.2865 89.5937 73.3906 89.5937H70.5312V117.558L83.6079 108.827C101.642 96.8101 112.473 76.5711 112.469 54.8996V18.1093L111.23 18.033Z" fill="#00C3FF"/>
<path d="M79.384 102.482C95.3106 91.8928 104.871 74.0263 104.844 54.8996V25.0307C92.7231 23.3692 81.0566 19.3017 70.5312 13.0654V4.06006C82.6519 12.1774 96.6798 16.9933 111.23 18.033L112.469 18.1093V54.8996C112.473 76.5711 101.642 96.8101 83.6079 108.827L70.5312 117.558V108.391L79.384 102.482Z" fill="#91E8ED"/>
<path d="M51.4688 89.5937H41.9375V32.4062H51.4688V4.06006C39.3481 12.1774 25.3202 16.9933 10.7701 18.033L9.53125 18.1093V54.8996C9.5266 76.5711 20.3582 96.8101 38.3921 108.827L51.4688 117.558V89.5937Z" fill="#00C3FF"/>
<path d="M51.4688 0H70.5312V122H51.4688V0Z" fill="#91E8ED"/>
<path d="M42.616 102.482C26.6894 91.8928 17.1293 74.0263 17.1563 54.8996V25.0307C29.2769 23.3692 40.9434 19.3017 51.4688 13.0654V4.06006C39.3481 12.1774 25.3202 16.9933 10.7701 18.033L9.53125 18.1093V54.8996C9.5266 76.5711 20.3582 96.8101 38.3921 108.827L51.4688 117.558V108.391L42.616 102.482Z" fill="#91E8ED"/>
<path d="M73.3906 61C81.2865 61 87.6875 54.599 87.6875 46.7031C87.6875 38.8073 81.2865 32.4062 73.3906 32.4062H41.9375V89.5938H73.3906C81.2865 89.5938 87.6875 83.1927 87.6875 75.2969C87.6875 67.401 81.2865 61 73.3906 61ZM51.4688 41.9375H73.3906C76.0229 41.9375 78.1562 44.0709 78.1562 46.7031C78.1562 49.3354 76.0229 51.4688 73.3906 51.4688H51.4688V41.9375ZM73.3906 80.0625H51.4688V70.5312H73.3906C76.0229 70.5312 78.1562 72.6646 78.1562 75.2969C78.1562 77.9291 76.0229 80.0625 73.3906 80.0625Z" fill="#00E7FF"/>
<path d="M43.8438 34.3125H53.375V0.487732L50.4067 2.47775C38.5643 10.4006 24.865 15.1057 10.6538 16.1305L7.625 16.3176V54.8996C7.59429 77.2143 18.7488 98.0592 37.332 110.412L53.375 121.123V87.6875H43.8438V34.3125ZM49.5625 91.5V113.993L39.4476 107.24C21.9265 95.5936 11.4077 75.9391 11.4375 54.8996V19.8956C24.9413 18.8382 38.004 14.6059 49.5625 7.54495V30.5H40.0312V91.5H49.5625Z" fill="#006B5E"/>
<path d="M85.0776 9.77698C80.3622 7.77765 75.847 5.33434 71.5951 2.47775L68.625 0.480286V34.3125H73.3906C80.2338 34.3125 85.7813 39.86 85.7813 46.7031C85.7813 53.5463 80.2338 59.0938 73.3906 59.0938H70.5313V62.9062H73.3906C80.2338 62.9062 85.7813 68.4537 85.7813 75.2969C85.7813 82.14 80.2338 87.6875 73.3906 87.6875H68.625V121.123L84.6662 110.414C103.25 98.0602 114.406 77.2152 114.375 54.8996V16.3176L111.365 16.1268C102.31 15.4883 93.4258 13.3419 85.0776 9.77698ZM110.563 54.8996C110.591 75.94 100.073 95.5945 82.5505 107.241L72.4375 113.993V91.5H73.3906C80.8257 91.5 87.3068 86.4402 89.1097 79.2267C90.9136 72.014 87.5758 64.4988 81.0156 61C87.5758 57.5012 90.9136 49.986 89.1097 42.7733C87.3068 35.5598 80.8257 30.5 73.3906 30.5H72.4375V7.54868C76.0061 9.73416 79.7321 11.6516 83.5855 13.2851C92.1562 16.9459 101.27 19.1788 110.563 19.8956V54.8996Z" fill="#006B5E"/>
<path d="M49.5625 53.375H73.3906C77.0756 53.375 80.0625 50.3881 80.0625 46.7031C80.0625 43.0181 77.0756 40.0312 73.3906 40.0312H49.5625V53.375ZM53.375 43.8438H73.3906C74.9702 43.8438 76.25 45.1236 76.25 46.7031C76.25 48.2827 74.9702 49.5625 73.3906 49.5625H53.375V43.8438Z" fill="#006B5E"/>
<path d="M73.3906 81.9688C77.0756 81.9688 80.0625 78.9819 80.0625 75.2969C80.0625 71.6119 77.0756 68.625 73.3906 68.625H49.5625V81.9688H73.3906ZM53.375 72.4375H73.3906C74.9702 72.4375 76.25 73.7173 76.25 75.2969C76.25 76.8764 74.9702 78.1562 73.3906 78.1562H53.375V72.4375Z" fill="#006B5E"/>
<path d="M0 99.125H3.8125V122H0V99.125Z" fill="#006B5E"/>
<path d="M7.625 106.75H11.4375V122H7.625V106.75Z" fill="#006B5E"/>
<path d="M15.25 114.375H19.0625V122H15.25V114.375Z" fill="#006B5E"/>
<path d="M118.188 99.125H122V122H118.188V99.125Z" fill="#006B5E"/>
<path d="M110.562 106.75H114.375V122H110.562V106.75Z" fill="#006B5E"/>
<path d="M102.938 114.375H106.75V122H102.938V114.375Z" fill="#006B5E"/>
<path d="M59.0938 89.5938H62.9062V106.75H59.0938V89.5938Z" fill="white"/>
<path d="M59.0938 15.25H62.9062V32.4062H59.0938V15.25Z" fill="white"/>
<path d="M34.5759 98.6298C22.2691 87.4204 15.2537 71.5458 15.25 54.8996V26.6875H19.0625V54.8996C19.0653 70.4707 25.6264 85.3205 37.1356 95.8077L34.5759 98.6298Z" fill="white"/>
<path d="M87.4241 98.6298L84.8644 95.8077C96.3736 85.3205 102.935 70.4707 102.938 54.8996V26.6875H106.75V54.8996C106.746 71.5458 99.731 87.4204 87.4241 98.6298Z" fill="white"/>
</svg>
