<svg width="122" height="122" viewBox="0 0 122 122" fill="none" xmlns="http://www.w3.org/2000/svg">
<g clip-path="url(#clip0)">
<path d="M94.094 44.2246C83.901 38.8923 72.5472 36.1634 61.0446 36.2815C56.4443 36.2769 51.8533 36.6963 47.3293 37.5371C44.5176 38.0543 41.7394 38.7435 39.0114 39.6001L38.7463 39.1406C34.0121 30.9418 23.5279 28.1319 15.3281 32.8662L23.4712 46.9619C17.9445 50.554 13.3219 55.3728 9.96422 61.0446H1.99416V91.5223H9.96422C14.0334 98.2879 19.8289 103.849 26.7573 107.635V120.095H49.6155V115.422C53.3982 115.998 57.2182 116.286 61.0446 116.285C66.1639 116.289 71.2702 115.768 76.2835 114.731V120.095H99.1417V105.238C109.697 97.9512 112.476 87.6782 112.476 76.2834C112.476 63.1671 107.568 51.5203 94.094 44.2246Z" fill="#91E8ED"/>
<path d="M38.1864 62.9495C38.1864 66.1053 35.6277 68.664 32.4718 68.664C29.316 68.664 26.7573 66.1053 26.7573 62.9495C26.7573 59.7936 29.316 57.2349 32.4718 57.2349C35.6277 57.2349 38.1864 59.7936 38.1864 62.9495Z" fill="#00C3FF"/>
<path d="M45.8058 104.856C45.8058 108.012 43.2471 110.571 40.0913 110.571C36.9354 110.571 34.3767 108.012 34.3767 104.856C34.3767 101.7 36.9354 99.1417 40.0913 99.1417C43.2471 99.1417 45.8058 101.7 45.8058 104.856Z" fill="#00E7FF"/>
<path d="M91.5223 104.856C91.5223 108.012 88.9636 110.571 85.8078 110.571C82.6519 110.571 80.0932 108.012 80.0932 104.856C80.0932 101.7 82.6519 99.1417 85.8078 99.1417C88.9636 99.1417 91.5223 101.7 91.5223 104.856Z" fill="#00E7FF"/>
<path d="M80.0932 89.6175C80.0932 92.7733 77.5345 95.332 74.3786 95.332C71.2228 95.332 68.6641 92.7733 68.6641 89.6175C68.6641 86.4616 71.2228 83.9029 74.3786 83.9029C77.5345 83.9029 80.0932 86.4616 80.0932 89.6175Z" fill="#00E7FF"/>
<path d="M58.7398 51.5204C48.4678 45.3491 43.5736 33.0829 46.7759 21.5347C49.9783 9.98654 60.4903 1.99323 72.4738 1.99323C84.4572 1.99323 94.9693 9.98654 98.1716 21.5347C101.374 33.0829 96.4798 45.3491 86.2077 51.5204H58.7398Z" fill="#00C3FF"/>
<path d="M74.3786 45.8058V40.0912H79.1408C82.823 40.0912 85.8077 37.1065 85.8077 33.4242C85.8077 29.7419 82.823 26.7572 79.1408 26.7572C82.823 26.7572 85.8077 23.7725 85.8077 20.0902C85.8077 16.4079 82.823 13.4232 79.1408 13.4232H74.3786V7.70868H66.7592V13.4232H59.1398V40.0912H66.7592V45.8058H74.3786Z" fill="#00E7FF"/>
<path d="M64.8543 45.8058H68.6641V38.1863H61.0446V15.3281H68.6641V7.70868H64.8543V11.5184H57.2349V41.9961H64.8543V45.8058Z" fill="#006B5E"/>
<path d="M76.2835 41.9961H79.1408C82.7719 41.9933 86.0077 39.7024 87.2169 36.2787C88.426 32.8541 87.3461 29.0397 84.5223 26.7572C87.3461 24.4747 88.426 20.6604 87.2169 17.2357C86.0077 13.812 82.7719 11.5212 79.1408 11.5184H76.2835V7.70868H72.4738V15.3281H79.1408C81.7711 15.3281 83.9029 17.4599 83.9029 20.0902C83.9029 22.7206 81.7711 24.8524 79.1408 24.8524V28.6621C81.7711 28.6621 83.9029 30.7939 83.9029 33.4242C83.9029 36.0545 81.7711 38.1863 79.1408 38.1863H72.4738V45.8058H76.2835V41.9961Z" fill="#006B5E"/>
<path d="M40.0913 62.9495C40.0913 58.7417 36.6796 55.3301 32.4718 55.3301C28.264 55.3301 24.8524 58.7417 24.8524 62.9495C24.8524 67.1573 28.264 70.5689 32.4718 70.5689C36.6796 70.5689 40.0913 67.1573 40.0913 62.9495ZM28.6621 62.9495C28.6621 60.8456 30.3679 59.1398 32.4718 59.1398C34.5757 59.1398 36.2815 60.8456 36.2815 62.9495C36.2815 65.0534 34.5757 66.7592 32.4718 66.7592C30.3679 66.7592 28.6621 65.0534 28.6621 62.9495Z" fill="#006B5E"/>
<path d="M122 40.0912C121.98 33.0401 120.055 26.1248 116.427 20.0791L113.143 22.0063C115.191 25.457 116.657 29.2202 117.483 33.1461C114.291 31.7035 110.527 32.6225 108.359 35.3737C106.192 38.1259 106.18 42.0007 108.33 44.7659C110.48 47.5311 114.239 48.4743 117.44 47.0512C116.394 51.8915 114.407 56.4797 111.592 60.5535C108.694 53.3992 103.481 47.4232 96.7858 43.581C103.642 32.4737 102.099 18.1324 93.0374 8.7374C83.9764 -0.65758 69.7002 -2.71776 58.352 3.73251C47.0047 10.1828 41.4706 23.5028 44.9064 36.0946C43.1922 36.461 41.5106 36.8573 39.8801 37.339C34.3609 28.8379 23.1522 26.1471 14.3757 31.2162L12.7257 32.1686L20.946 46.4076C16.1243 49.8164 12.0225 54.1432 8.87601 59.1398H0.0893097V93.4271H8.87601C12.8959 99.736 18.3752 104.983 24.8524 108.725V122H51.5204V117.607C59.1268 118.539 66.829 118.346 74.3786 117.036V122H101.047V106.216C112.979 97.4787 114.381 84.9929 114.381 76.2834C114.406 72.4914 113.953 68.7124 113.034 65.0338C118.725 57.9548 121.882 49.1737 122 40.0912ZM114.381 43.9009C112.277 43.9009 110.571 42.1951 110.571 40.0912C110.571 37.9873 112.277 36.2815 114.381 36.2815C116.484 36.2815 118.19 37.9873 118.19 40.0912C118.19 42.1951 116.484 43.9009 114.381 43.9009ZM72.4738 3.899C83.5141 3.88784 93.2262 11.1929 96.277 21.8035C99.3268 32.4141 94.9776 43.7614 85.6171 49.6155H59.3305C49.9699 43.7614 45.6207 32.4141 48.6705 21.8035C51.7213 11.1929 61.4334 3.88784 72.4738 3.899ZM91.5223 73.2625V81.2093L83.9029 73.5899V53.4252H87.7126V69.4528L91.5223 73.2625ZM64.8543 53.4252V62.1607L41.9961 85.019V78.977L61.0446 59.9285V53.4252H64.8543ZM51.5204 113.75C50.9809 113.679 50.4405 113.622 49.9029 113.541L47.7107 113.205V118.19H28.6621V106.532L27.7097 105.984C21.079 102.364 15.5281 97.048 11.6254 90.5791L11.0729 89.6174H3.89902V85.8077H11.5184V81.998H3.89902V78.2683H19.1378V74.4586H3.89902V70.5689H11.5184V66.7592H3.89902V62.9495H11.0729L11.6217 61.9877C14.8417 56.581 19.2588 51.9845 24.5325 48.5505L26.0085 47.5581L17.9948 33.6642C25.0728 30.6879 33.2596 33.4419 37.0991 40.0912L38.1278 41.8687L39.5825 41.4092C41.7496 40.7404 43.9484 40.1796 46.1713 39.7313C47.7553 43.4749 50.1113 46.8429 53.0839 49.6155H47.7107V53.4252H57.2349V58.351L38.1864 77.3996V97.5075C34.4715 98.4664 32.0496 102.039 32.5323 105.845C33.0159 109.651 36.2546 112.505 40.0912 112.505C43.9279 112.505 47.1665 109.651 47.6502 105.845C48.1339 102.039 45.7109 98.4664 41.9961 97.5075V90.4062L51.5204 80.8819V113.75ZM40.0912 101.047C42.1951 101.047 43.901 102.752 43.901 104.856C43.901 106.96 42.1951 108.666 40.0912 108.666C37.9873 108.666 36.2815 106.96 36.2815 104.856C36.2815 102.752 37.9873 101.047 40.0912 101.047ZM59.1398 114.342C57.8655 114.31 56.5969 114.24 55.3301 114.152V77.0722L68.6641 63.7382V53.4252H72.4738V67.8753L59.1398 81.2093V114.342ZM74.3786 85.8077C76.4825 85.8077 78.1883 87.5135 78.1883 89.6174C78.1883 91.7213 76.4825 93.4271 74.3786 93.4271C72.2747 93.4271 70.5689 91.7213 70.5689 89.6174C70.5689 87.5135 72.2747 85.8077 74.3786 85.8077ZM110.535 78.1883H102.951V81.998H110.276C110.137 83.3197 109.947 84.5902 109.704 85.8077H99.1417V89.6174H108.708C106.861 95.3757 103.105 100.331 98.06 103.666L97.2369 104.237V118.19H78.1883V112.392L75.9021 112.866C71.6376 113.744 67.3024 114.241 62.9495 114.35V82.7867L72.4738 73.2625V82.2687C68.7589 83.2276 66.3369 86.8001 66.8197 90.6061C67.3033 94.4121 70.5419 97.2657 74.3786 97.2657C78.2153 97.2657 81.4539 94.4121 81.9376 90.6061C82.4212 86.8001 79.9983 83.2276 76.2835 82.2687V53.4252H80.0932V75.1673L91.5223 86.5964V96.4481L89.6537 98.3167C88.493 97.6163 87.1638 97.2433 85.8077 97.2368C81.5999 97.2368 78.1883 100.648 78.1883 104.856C78.1883 109.064 81.5999 112.476 85.8077 112.476C90.0155 112.476 93.4272 109.064 93.4272 104.856C93.4206 103.5 93.0477 102.172 92.3473 101.01L95.332 98.0256V71.685L91.5223 67.8753V53.4252H97.2369V49.6155H91.8636C92.8319 48.7105 93.7359 47.7385 94.5703 46.7089C100.952 50.314 105.844 56.0704 108.375 62.9495H99.1417V66.7592H109.522C109.813 68.0167 110.04 69.2881 110.202 70.5689H102.951V74.3786H110.52C110.546 75.0092 110.571 75.638 110.571 76.2834C110.571 76.9289 110.554 77.5614 110.535 78.1883ZM89.6174 104.856C89.6174 106.96 87.9116 108.666 85.8077 108.666C83.7038 108.666 81.998 106.96 81.998 104.856C81.998 102.752 83.7038 101.047 85.8077 101.047C87.9116 101.047 89.6174 102.752 89.6174 104.856Z" fill="#006B5E"/>
<path d="M36.2815 0.0892944H40.0913V15.3281H36.2815V0.0892944Z" fill="#006B5E"/>
<path d="M28.6621 0.0892944H32.4718V7.70871H28.6621V0.0892944Z" fill="#006B5E"/>
<path d="M104.856 0.0892944H108.666V15.3281H104.856V0.0892944Z" fill="#006B5E"/>
<path d="M112.476 0.0892944H116.285V7.70871H112.476V0.0892944Z" fill="#006B5E"/>
<path d="M64.8544 19.1378H76.2835V22.9475H64.8544V19.1378Z" fill="white"/>
<path d="M64.8544 30.567H76.2835V34.3767H64.8544V30.567Z" fill="white"/>
</g>
<defs>
<clipPath id="clip0">
<rect width="122" height="122" fill="white"/>
</clipPath>
</defs>
</svg>
