<svg width="122" height="122" viewBox="0 0 122 122" fill="none" xmlns="http://www.w3.org/2000/svg">
<path d="M1.90625 9.53125H120.094V97.2188H1.90625V9.53125Z" fill="#91E8ED"/>
<path d="M1.90625 1.90625H120.094V17.1562H1.90625V1.90625Z" fill="#E4E8ED"/>
<path d="M88.2022 55.2812C102.892 70.2399 102.747 94.2533 87.8765 109.033C73.0071 123.814 48.9929 123.814 34.1236 109.033C19.2533 94.2533 19.1081 70.2399 33.7978 55.2812H88.2022Z" fill="#00C3FF"/>
<path d="M61 47.3305L51.6326 37.9612L57.0237 32.5701L61 36.5445L71.6482 25.8982L77.0393 31.2893L61 47.3305Z" fill="#00E7FF"/>
<path d="M64.8125 104.844V97.2188H69.5781C73.2631 97.2188 76.25 94.2319 76.25 90.5469C76.25 86.8619 73.2631 83.875 69.5781 83.875C73.2631 83.875 76.25 80.8881 76.25 77.2031C76.25 73.5181 73.2631 70.5312 69.5781 70.5312H64.8125V62.9062H57.1875V70.5312H49.5625V97.2188H57.1875V104.844H64.8125Z" fill="#00E7FF"/>
<path d="M0 0V99.125H24.8864C31.4885 113.091 45.5517 121.999 61 121.999C76.4483 121.999 90.5115 113.091 97.1136 99.125H122V0H0ZM61 118.188C46.5514 118.206 33.4776 109.624 27.7477 96.3606C22.0177 83.0959 24.7319 67.6942 34.6494 57.1875H40.1969C36.7149 60.1027 33.8853 63.717 31.8897 67.7957L35.3205 69.4543C37.8374 64.3136 41.8323 60.0422 46.7925 57.1875H87.3506C97.2681 67.6942 99.9823 83.0959 94.2523 96.3606C88.5224 109.624 75.4486 118.206 61 118.188ZM118.188 95.3125H98.6959C103.341 82.3718 100.962 67.9492 92.4057 57.1875H102.938V53.375H19.0625V57.1875H29.5943C21.0376 67.9492 18.6585 82.3718 23.3041 95.3125H3.8125V19.0625H118.188V95.3125ZM118.188 15.25H3.8125V3.8125H118.188V15.25Z" fill="#006B5E"/>
<path d="M55.2812 68.625H47.6562V99.125H55.2812V104.844H59.0938V95.3125H51.4688V72.4375H59.0938V62.9062H55.2812V68.625Z" fill="#006B5E"/>
<path d="M78.1562 77.2031C78.1507 72.4673 74.314 68.6306 69.5781 68.625H66.7188V62.9062H62.9062V72.4375H69.5781C72.2104 72.4375 74.3438 74.5709 74.3438 77.2031C74.3438 79.8354 72.2104 81.9688 69.5781 81.9688V85.7812C72.2104 85.7812 74.3438 87.9146 74.3438 90.5469C74.3438 93.1791 72.2104 95.3125 69.5781 95.3125H62.9062V104.844H66.7188V99.125H69.5781C73.2119 99.1222 76.4501 96.8297 77.6601 93.4035C78.8702 89.9763 77.7895 86.1591 74.9637 83.875C76.9825 82.2489 78.1572 79.7963 78.1562 77.2031Z" fill="#006B5E"/>
<path d="M11.4375 53.375H15.25V57.1875H11.4375V53.375Z" fill="#006B5E"/>
<path d="M106.75 53.375H110.562V57.1875H106.75V53.375Z" fill="#006B5E"/>
<path d="M79.7349 31.2893L71.6482 23.2026L61 33.849L57.0237 29.8745L48.937 37.9612L61 50.026L79.7349 31.2893ZM57.0237 35.2656L61 39.2401L71.6482 28.5938L74.3438 31.2893L61 44.6331L54.3281 37.9612L57.0237 35.2656Z" fill="#006B5E"/>
<path d="M38.125 7.625H114.375V11.4375H38.125V7.625Z" fill="#006B5E"/>
<path d="M7.625 7.625H11.4375V11.4375H7.625V7.625Z" fill="#006B5E"/>
<path d="M15.25 7.625H19.0625V11.4375H15.25V7.625Z" fill="#006B5E"/>
<path d="M22.875 7.625H26.6875V11.4375H22.875V7.625Z" fill="#006B5E"/>
<path d="M7.625 22.875H22.875V26.6875H7.625V22.875Z" fill="white"/>
<path d="M7.625 30.5H30.5V34.3125H7.625V30.5Z" fill="white"/>
<path d="M7.625 38.125H38.125V41.9375H7.625V38.125Z" fill="white"/>
<path d="M99.125 22.875H114.375V26.6875H99.125V22.875Z" fill="white"/>
<path d="M91.5 30.5H114.375V34.3125H91.5V30.5Z" fill="white"/>
<path d="M83.875 38.125H114.375V41.9375H83.875V38.125Z" fill="white"/>
<path d="M61 114.375V110.562C76.7843 110.545 89.5761 97.753 89.5938 81.9688H93.4062C93.3867 99.8575 78.8888 114.355 61 114.375Z" fill="white"/>
<path d="M55.2812 76.25H66.7188V80.0625H55.2812V76.25Z" fill="white"/>
<path d="M55.2812 87.6875H66.7188V91.5H55.2812V87.6875Z" fill="white"/>
</svg>
